<svg width="114" height="38" viewBox="0 0 114 38" fill="none" xmlns="http://www.w3.org/2000/svg">
<g clip-path="url(#clip0_602_453)">
<path d="M12.69 37.36C11.03 37.36 9.49 37.09 8.07 36.55C6.67 36.01 5.45 35.25 4.41 34.27C3.39 33.29 2.59 32.14 2.01 30.82C1.45 29.5 1.17 28.06 1.17 26.5C1.17 24.94 1.45 23.5 2.01 22.18C2.59 20.86 3.4 19.71 4.44 18.73C5.48 17.75 6.7 16.99 8.1 16.45C9.5 15.91 11.02 15.64 12.66 15.64C14.32 15.64 15.84 15.91 17.22 16.45C18.62 16.99 19.83 17.75 20.85 18.73C21.89 19.71 22.7 20.86 23.28 22.18C23.86 23.48 24.15 24.92 24.15 26.5C24.15 28.06 23.86 29.51 23.28 30.85C22.7 32.17 21.89 33.32 20.85 34.3C19.83 35.26 18.62 36.01 17.22 36.55C15.84 37.09 14.33 37.36 12.69 37.36ZM12.66 33.22C13.6 33.22 14.46 33.06 15.24 32.74C16.04 32.42 16.74 31.96 17.34 31.36C17.94 30.76 18.4 30.05 18.72 29.23C19.06 28.41 19.23 27.5 19.23 26.5C19.23 25.5 19.06 24.59 18.72 23.77C18.4 22.95 17.94 22.24 17.34 21.64C16.76 21.04 16.07 20.58 15.27 20.26C14.47 19.94 13.6 19.78 12.66 19.78C11.72 19.78 10.85 19.94 10.05 20.26C9.27 20.58 8.58 21.04 7.98 21.64C7.38 22.24 6.91 22.95 6.57 23.77C6.25 24.59 6.09 25.5 6.09 26.5C6.09 27.48 6.25 28.39 6.57 29.23C6.91 30.05 7.37 30.76 7.95 31.36C8.55 31.96 9.25 32.42 10.05 32.74C10.85 33.06 11.72 33.22 12.66 33.22ZM27.8025 37V16H31.8225L44.2125 31.12H42.2625V16H47.0625V37H43.0725L30.6525 21.88H32.6025V37H27.8025Z" fill="#ED5005"/>
<path d="M52.691 37V16H55.691V34.39H67.061V37H52.691ZM70.0835 37V21.1H72.9635V37H70.0835ZM71.5235 18.04C70.9635 18.04 70.4935 17.86 70.1135 17.5C69.7535 17.14 69.5735 16.7 69.5735 16.18C69.5735 15.64 69.7535 15.19 70.1135 14.83C70.4935 14.47 70.9635 14.29 71.5235 14.29C72.0835 14.29 72.5435 14.47 72.9035 14.83C73.2835 15.17 73.4735 15.6 73.4735 16.12C73.4735 16.66 73.2935 17.12 72.9335 17.5C72.5735 17.86 72.1035 18.04 71.5235 18.04ZM86.9524 20.95C88.2524 20.95 89.3924 21.2 90.3724 21.7C91.3724 22.2 92.1524 22.96 92.7124 23.98C93.2724 25 93.5524 26.29 93.5524 27.85V37H90.6724V28.18C90.6724 26.64 90.2924 25.48 89.5324 24.7C88.7924 23.92 87.7424 23.53 86.3824 23.53C85.3624 23.53 84.4724 23.73 83.7124 24.13C82.9524 24.53 82.3624 25.12 81.9424 25.9C81.5424 26.68 81.3424 27.65 81.3424 28.81V37H78.4624V21.1H81.2224V25.39L80.7724 24.25C81.2924 23.21 82.0924 22.4 83.1724 21.82C84.2524 21.24 85.5124 20.95 86.9524 20.95ZM105.962 37.18C104.262 37.18 102.762 36.83 101.462 36.13C100.182 35.43 99.1823 34.47 98.4623 33.25C97.7623 32.03 97.4123 30.63 97.4123 29.05C97.4123 27.47 97.7523 26.07 98.4323 24.85C99.1323 23.63 100.082 22.68 101.282 22C102.502 21.3 103.872 20.95 105.392 20.95C106.932 20.95 108.292 21.29 109.472 21.97C110.652 22.65 111.572 23.61 112.232 24.85C112.912 26.07 113.252 27.5 113.252 29.14C113.252 29.26 113.242 29.4 113.222 29.56C113.222 29.72 113.212 29.87 113.192 30.01H99.6623V27.94H111.692L110.522 28.66C110.542 27.64 110.332 26.73 109.892 25.93C109.452 25.13 108.842 24.51 108.062 24.07C107.302 23.61 106.412 23.38 105.392 23.38C104.392 23.38 103.502 23.61 102.722 24.07C101.942 24.51 101.332 25.14 100.892 25.96C100.452 26.76 100.232 27.68 100.232 28.72V29.2C100.232 30.26 100.472 31.21 100.952 32.05C101.452 32.87 102.142 33.51 103.022 33.97C103.902 34.43 104.912 34.66 106.052 34.66C106.992 34.66 107.842 34.5 108.602 34.18C109.382 33.86 110.062 33.38 110.642 32.74L112.232 34.6C111.512 35.44 110.612 36.08 109.532 36.52C108.472 36.96 107.282 37.18 105.962 37.18Z" fill="#F4900E"/>
<path d="M6.326 11.112C5.57933 11.112 4.86533 11 4.184 10.776C3.50267 10.5427 2.966 10.244 2.574 9.88L3.092 8.788C3.46533 9.11467 3.94133 9.38533 4.52 9.6C5.09867 9.81467 5.70067 9.922 6.326 9.922C6.89533 9.922 7.35733 9.85667 7.712 9.726C8.06667 9.59533 8.328 9.418 8.496 9.194C8.664 8.96067 8.748 8.69933 8.748 8.41C8.748 8.074 8.636 7.80333 8.412 7.598C8.19733 7.39267 7.91267 7.22933 7.558 7.108C7.21267 6.97733 6.83 6.86533 6.41 6.772C5.99 6.67867 5.56533 6.57133 5.136 6.45C4.716 6.31933 4.32867 6.156 3.974 5.96C3.62867 5.764 3.34867 5.50267 3.134 5.176C2.91933 4.84 2.812 4.41067 2.812 3.888C2.812 3.384 2.94267 2.922 3.204 2.502C3.47467 2.07267 3.88533 1.732 4.436 1.48C4.996 1.21867 5.70533 1.088 6.564 1.088C7.13333 1.088 7.698 1.16267 8.258 1.312C8.818 1.46133 9.30333 1.676 9.714 1.956L9.252 3.076C8.832 2.796 8.38867 2.59533 7.922 2.474C7.45533 2.34333 7.00267 2.278 6.564 2.278C6.01333 2.278 5.56067 2.348 5.206 2.488C4.85133 2.628 4.59 2.81467 4.422 3.048C4.26333 3.28133 4.184 3.54267 4.184 3.832C4.184 4.17733 4.29133 4.45267 4.506 4.658C4.73 4.86333 5.01467 5.02667 5.36 5.148C5.71467 5.26933 6.102 5.38133 6.522 5.484C6.942 5.57733 7.362 5.68467 7.782 5.806C8.21133 5.92733 8.59867 6.086 8.944 6.282C9.29867 6.478 9.58333 6.73933 9.798 7.066C10.0127 7.39267 10.12 7.81267 10.12 8.326C10.12 8.82067 9.98467 9.28267 9.714 9.712C9.44333 10.132 9.02333 10.4727 8.454 10.734C7.894 10.986 7.18467 11.112 6.326 11.112ZM13.9746 11V2.418H10.6146V1.2H18.7206V2.418H15.3606V11H13.9746ZM24.5327 11.112C23.786 11.112 23.0907 10.986 22.4467 10.734C21.812 10.482 21.2613 10.132 20.7947 9.684C20.328 9.22667 19.964 8.69467 19.7027 8.088C19.4413 7.48133 19.3107 6.81867 19.3107 6.1C19.3107 5.38133 19.4413 4.71867 19.7027 4.112C19.964 3.50533 20.328 2.978 20.7947 2.53C21.2613 2.07267 21.812 1.718 22.4467 1.466C23.0813 1.214 23.7767 1.088 24.5327 1.088C25.2793 1.088 25.9653 1.214 26.5907 1.466C27.2253 1.70867 27.776 2.05867 28.2427 2.516C28.7187 2.964 29.0827 3.49133 29.3347 4.098C29.596 4.70467 29.7267 5.372 29.7267 6.1C29.7267 6.828 29.596 7.49533 29.3347 8.102C29.0827 8.70867 28.7187 9.24067 28.2427 9.698C27.776 10.146 27.2253 10.496 26.5907 10.748C25.9653 10.9907 25.2793 11.112 24.5327 11.112ZM24.5327 9.866C25.074 9.866 25.5733 9.77267 26.0307 9.586C26.4973 9.39933 26.8987 9.138 27.2347 8.802C27.58 8.45667 27.846 8.05533 28.0327 7.598C28.2287 7.14067 28.3267 6.64133 28.3267 6.1C28.3267 5.55867 28.2287 5.05933 28.0327 4.602C27.846 4.14467 27.58 3.748 27.2347 3.412C26.8987 3.06667 26.4973 2.80067 26.0307 2.614C25.5733 2.42733 25.074 2.334 24.5327 2.334C23.982 2.334 23.4733 2.42733 23.0067 2.614C22.5493 2.80067 22.148 3.06667 21.8027 3.412C21.4573 3.748 21.1867 4.14467 20.9907 4.602C20.804 5.05933 20.7107 5.55867 20.7107 6.1C20.7107 6.64133 20.804 7.14067 20.9907 7.598C21.1867 8.05533 21.4573 8.45667 21.8027 8.802C22.148 9.138 22.5493 9.39933 23.0067 9.586C23.4733 9.77267 23.982 9.866 24.5327 9.866ZM31.8665 11V1.2H35.6885C36.5472 1.2 37.2798 1.33533 37.8865 1.606C38.4932 1.87667 38.9598 2.26867 39.2865 2.782C39.6132 3.29533 39.7765 3.90667 39.7765 4.616C39.7765 5.32533 39.6132 5.93667 39.2865 6.45C38.9598 6.954 38.4932 7.34133 37.8865 7.612C37.2798 7.88267 36.5472 8.018 35.6885 8.018H32.6365L33.2665 7.374V11H31.8665ZM38.4185 11L35.9265 7.444H37.4245L39.9445 11H38.4185ZM33.2665 7.514L32.6365 6.828H35.6465C36.5425 6.828 37.2192 6.63667 37.6765 6.254C38.1432 5.862 38.3765 5.316 38.3765 4.616C38.3765 3.916 38.1432 3.37467 37.6765 2.992C37.2192 2.60933 36.5425 2.418 35.6465 2.418H32.6365L33.2665 1.718V7.514ZM43.3124 5.428H48.3524V6.618H43.3124V5.428ZM43.4384 9.782H49.1504V11H42.0384V1.2H48.9544V2.418H43.4384V9.782Z" fill="#F4900E"/>
<path d="M53 10H113" stroke="#F4900E" stroke-width="2"/>
<path d="M53 6H93" stroke="#F7631C" stroke-width="2"/>
<path d="M53 2H73" stroke="#ED5005" stroke-width="2"/>
</g>
<defs>
<clipPath id="clip0_602_453">
<rect width="114" height="38" fill="white"/>
</clipPath>
</defs>
</svg>
