<svg width="125" height="50" viewBox="0 0 125 50" fill="none" xmlns="http://www.w3.org/2000/svg">
<g clip-path="url(#clip0_602_453)">
<path d="M17.69 44.36C16.03 44.36 14.49 44.09 13.07 43.55C11.67 43.01 10.45 42.25 9.41 41.27C8.39 40.29 7.59 39.14 7.01 37.82C6.45 36.5 6.17 35.06 6.17 33.5C6.17 31.94 6.45 30.5 7.01 29.18C7.59 27.86 8.4 26.71 9.44 25.73C10.48 24.75 11.7 23.99 13.1 23.45C14.5 22.91 16.02 22.64 17.66 22.64C19.32 22.64 20.84 22.91 22.22 23.45C23.62 23.99 24.83 24.75 25.85 25.73C26.89 26.71 27.7 27.86 28.28 29.18C28.86 30.48 29.15 31.92 29.15 33.5C29.15 35.06 28.86 36.51 28.28 37.85C27.7 39.17 26.89 40.32 25.85 41.3C24.83 42.26 23.62 43.01 22.22 43.55C20.84 44.09 19.33 44.36 17.69 44.36ZM17.66 40.22C18.6 40.22 19.46 40.06 20.24 39.74C21.04 39.42 21.74 38.96 22.34 38.36C22.94 37.76 23.4 37.05 23.72 36.23C24.06 35.41 24.23 34.5 24.23 33.5C24.23 32.5 24.06 31.59 23.72 30.77C23.4 29.95 22.94 29.24 22.34 28.64C21.76 28.04 21.07 27.58 20.27 27.26C19.47 26.94 18.6 26.78 17.66 26.78C16.72 26.78 15.85 26.94 15.05 27.26C14.27 27.58 13.58 28.04 12.98 28.64C12.38 29.24 11.91 29.95 11.57 30.77C11.25 31.59 11.09 32.5 11.09 33.5C11.09 34.48 11.25 35.39 11.57 36.23C11.91 37.05 12.37 37.76 12.95 38.36C13.55 38.96 14.25 39.42 15.05 39.74C15.85 40.06 16.72 40.22 17.66 40.22ZM32.8025 44V23H36.8225L49.2125 38.12H47.2625V23H52.0625V44H48.0725L35.6525 28.88H37.6025V44H32.8025Z" fill="#ED5005"/>
<path d="M57.691 44V23H60.691V41.39H72.061V44H57.691ZM75.0835 44V28.1H77.9635V44H75.0835ZM76.5235 25.04C75.9635 25.04 75.4935 24.86 75.1135 24.5C74.7535 24.14 74.5735 23.7 74.5735 23.18C74.5735 22.64 74.7535 22.19 75.1135 21.83C75.4935 21.47 75.9635 21.29 76.5235 21.29C77.0835 21.29 77.5435 21.47 77.9035 21.83C78.2835 22.17 78.4735 22.6 78.4735 23.12C78.4735 23.66 78.2935 24.12 77.9335 24.5C77.5735 24.86 77.1035 25.04 76.5235 25.04ZM91.9524 27.95C93.2524 27.95 94.3924 28.2 95.3724 28.7C96.3724 29.2 97.1524 29.96 97.7124 30.98C98.2724 32 98.5524 33.29 98.5524 34.85V44H95.6724V35.18C95.6724 33.64 95.2924 32.48 94.5324 31.7C93.7924 30.92 92.7424 30.53 91.3824 30.53C90.3624 30.53 89.4724 30.73 88.7124 31.13C87.9524 31.53 87.3624 32.12 86.9424 32.9C86.5424 33.68 86.3424 34.65 86.3424 35.81V44H83.4624V28.1H86.2224V32.39L85.7724 31.25C86.2924 30.21 87.0924 29.4 88.1724 28.82C89.2524 28.24 90.5124 27.95 91.9524 27.95ZM110.962 44.18C109.262 44.18 107.762 43.83 106.462 43.13C105.182 42.43 104.182 41.47 103.462 40.25C102.762 39.03 102.412 37.63 102.412 36.05C102.412 34.47 102.752 33.07 103.432 31.85C104.132 30.63 105.082 29.68 106.282 29C107.502 28.3 108.872 27.95 110.392 27.95C111.932 27.95 113.292 28.29 114.472 28.97C115.652 29.65 116.572 30.61 117.232 31.85C117.912 33.07 118.252 34.5 118.252 36.14C118.252 36.26 118.242 36.4 118.222 36.56C118.222 36.72 118.212 36.87 118.192 37.01H104.662V34.94H116.692L115.522 35.66C115.542 34.64 115.332 33.73 114.892 32.93C114.452 32.13 113.842 31.51 113.062 31.07C112.302 30.61 111.412 30.38 110.392 30.38C109.392 30.38 108.502 30.61 107.722 31.07C106.942 31.51 106.332 32.14 105.892 32.96C105.452 33.76 105.232 34.68 105.232 35.72V36.2C105.232 37.26 105.472 38.21 105.952 39.05C106.452 39.87 107.142 40.51 108.022 40.97C108.902 41.43 109.912 41.66 111.052 41.66C111.992 41.66 112.842 41.5 113.602 41.18C114.382 40.86 115.062 40.38 115.642 39.74L117.232 41.6C116.512 42.44 115.612 43.08 114.532 43.52C113.472 43.96 112.282 44.18 110.962 44.18Z" fill="#F4900E"/>
<path d="M11.326 18.112C10.5793 18.112 9.86533 18 9.184 17.776C8.50267 17.5427 7.966 17.244 7.574 16.88L8.092 15.788C8.46533 16.1147 8.94133 16.3853 9.52 16.6C10.0987 16.8147 10.7007 16.922 11.326 16.922C11.8953 16.922 12.3573 16.8567 12.712 16.726C13.0667 16.5953 13.328 16.418 13.496 16.194C13.664 15.9607 13.748 15.6993 13.748 15.41C13.748 15.074 13.636 14.8033 13.412 14.598C13.1973 14.3927 12.9127 14.2293 12.558 14.108C12.2127 13.9773 11.83 13.8653 11.41 13.772C10.99 13.6787 10.5653 13.5713 10.136 13.45C9.716 13.3193 9.32867 13.156 8.974 12.96C8.62867 12.764 8.34867 12.5027 8.134 12.176C7.91933 11.84 7.812 11.4107 7.812 10.888C7.812 10.384 7.94267 9.922 8.204 9.502C8.47467 9.07267 8.88533 8.732 9.436 8.48C9.996 8.21867 10.7053 8.088 11.564 8.088C12.1333 8.088 12.698 8.16267 13.258 8.312C13.818 8.46133 14.3033 8.676 14.714 8.956L14.252 10.076C13.832 9.796 13.3887 9.59533 12.922 9.474C12.4553 9.34333 12.0027 9.278 11.564 9.278C11.0133 9.278 10.5607 9.348 10.206 9.488C9.85133 9.628 9.59 9.81467 9.422 10.048C9.26333 10.2813 9.184 10.5427 9.184 10.832C9.184 11.1773 9.29133 11.4527 9.506 11.658C9.73 11.8633 10.0147 12.0267 10.36 12.148C10.7147 12.2693 11.102 12.3813 11.522 12.484C11.942 12.5773 12.362 12.6847 12.782 12.806C13.2113 12.9273 13.5987 13.086 13.944 13.282C14.2987 13.478 14.5833 13.7393 14.798 14.066C15.0127 14.3927 15.12 14.8127 15.12 15.326C15.12 15.8207 14.9847 16.2827 14.714 16.712C14.4433 17.132 14.0233 17.4727 13.454 17.734C12.894 17.986 12.1847 18.112 11.326 18.112ZM18.9746 18V9.418H15.6146V8.2H23.7206V9.418H20.3606V18H18.9746ZM29.5327 18.112C28.786 18.112 28.0907 17.986 27.4467 17.734C26.812 17.482 26.2613 17.132 25.7947 16.684C25.328 16.2267 24.964 15.6947 24.7027 15.088C24.4413 14.4813 24.3107 13.8187 24.3107 13.1C24.3107 12.3813 24.4413 11.7187 24.7027 11.112C24.964 10.5053 25.328 9.978 25.7947 9.53C26.2613 9.07267 26.812 8.718 27.4467 8.466C28.0813 8.214 28.7767 8.088 29.5327 8.088C30.2793 8.088 30.9653 8.214 31.5907 8.466C32.2253 8.70867 32.776 9.05867 33.2427 9.516C33.7187 9.964 34.0827 10.4913 34.3347 11.098C34.596 11.7047 34.7267 12.372 34.7267 13.1C34.7267 13.828 34.596 14.4953 34.3347 15.102C34.0827 15.7087 33.7187 16.2407 33.2427 16.698C32.776 17.146 32.2253 17.496 31.5907 17.748C30.9653 17.9907 30.2793 18.112 29.5327 18.112ZM29.5327 16.866C30.074 16.866 30.5733 16.7727 31.0307 16.586C31.4973 16.3993 31.8987 16.138 32.2347 15.802C32.58 15.4567 32.846 15.0553 33.0327 14.598C33.2287 14.1407 33.3267 13.6413 33.3267 13.1C33.3267 12.5587 33.2287 12.0593 33.0327 11.602C32.846 11.1447 32.58 10.748 32.2347 10.412C31.8987 10.0667 31.4973 9.80067 31.0307 9.614C30.5733 9.42733 30.074 9.334 29.5327 9.334C28.982 9.334 28.4733 9.42733 28.0067 9.614C27.5493 9.80067 27.148 10.0667 26.8027 10.412C26.4573 10.748 26.1867 11.1447 25.9907 11.602C25.804 12.0593 25.7107 12.5587 25.7107 13.1C25.7107 13.6413 25.804 14.1407 25.9907 14.598C26.1867 15.0553 26.4573 15.4567 26.8027 15.802C27.148 16.138 27.5493 16.3993 28.0067 16.586C28.4733 16.7727 28.982 16.866 29.5327 16.866ZM36.8665 18V8.2H40.6885C41.5472 8.2 42.2798 8.33533 42.8865 8.606C43.4932 8.87667 43.9598 9.26867 44.2865 9.782C44.6132 10.2953 44.7765 10.9067 44.7765 11.616C44.7765 12.3253 44.6132 12.9367 44.2865 13.45C43.9598 13.954 43.4932 14.3413 42.8865 14.612C42.2798 14.8827 41.5472 15.018 40.6885 15.018H37.6365L38.2665 14.374V18H36.8665ZM43.4185 18L40.9265 14.444H42.4245L44.9445 18H43.4185ZM38.2665 14.514L37.6365 13.828H40.6465C41.5425 13.828 42.2192 13.6367 42.6765 13.254C43.1432 12.862 43.3765 12.316 43.3765 11.616C43.3765 10.916 43.1432 10.3747 42.6765 9.992C42.2192 9.60933 41.5425 9.418 40.6465 9.418H37.6365L38.2665 8.718V14.514ZM48.3124 12.428H53.3524V13.618H48.3124V12.428ZM48.4384 16.782H54.1504V18H47.0384V8.2H53.9544V9.418H48.4384V16.782Z" fill="#F4900E"/>
<path d="M58 17H118" stroke="#F4900E" stroke-width="2"/>
<path d="M58 13H98" stroke="#F7631C" stroke-width="2"/>
<path d="M58 9H78" stroke="#ED5005" stroke-width="2"/>
</g>
<defs>
<clipPath id="clip0_602_453">
<rect width="125" height="50" fill="white"/>
</clipPath>
</defs>
</svg>
