<svg width="18" height="16" viewBox="0 0 18 16" fill="none" xmlns="http://www.w3.org/2000/svg">
<g clip-path="url(#clip0_619_606)">
<path d="M16.9395 6.03111C16.8682 5.79881 16.731 5.5942 16.5459 5.44399C16.3607 5.29377 16.1362 5.20492 15.9017 5.18903L11.6599 4.88114L10.0864 0.771468C10.0012 0.544266 9.8519 0.349043 9.65794 0.211382C9.46399 0.0737204 9.23446 4.15289e-05 8.99944 0H8.99833C8.76367 0.000434114 8.5346 0.0743009 8.34107 0.211942C8.14754 0.349582 7.99856 0.544591 7.91361 0.771468L6.31666 4.90487L2.09831 5.18903C1.86375 5.20492 1.63926 5.29377 1.45413 5.44399C1.26899 5.5942 1.1318 5.79881 1.06046 6.03111C0.985203 6.26671 0.980083 6.52035 1.04577 6.75901C1.11145 6.99767 1.2449 7.21028 1.42873 7.36917L4.67396 10.2143L3.70865 14.1526C3.64211 14.4179 3.65435 14.6979 3.74375 14.9558C3.83316 15.2138 3.99556 15.4377 4.20972 15.5983C4.41647 15.7544 4.66372 15.8422 4.91929 15.8505C5.17485 15.8587 5.42689 15.787 5.64261 15.6446L8.99051 13.4448C8.99498 13.4414 8.99944 13.4391 9.00948 13.4448L12.6118 15.8119C12.8074 15.9415 13.0361 16.0069 13.2681 15.9994C13.5 15.992 13.7244 15.9121 13.9119 15.7702C14.106 15.6248 14.2531 15.4219 14.3342 15.1882C14.4152 14.9545 14.4264 14.7009 14.3661 14.4605L13.3405 10.1581L16.5713 7.36917C16.7551 7.21028 16.8885 6.99767 16.9542 6.75901C17.0199 6.52035 17.0148 6.26671 16.9395 6.03111Z" fill="#F4900E"/>
</g>
<defs>
<clipPath id="clip0_619_606">
<rect width="18" height="16" fill="white"/>
</clipPath>
</defs>
</svg>
